<?xml version="1.0" standalone="no"?><!DOCTYPE svg PUBLIC "-//W3C//DTD SVG 1.1//EN" "http://www.w3.org/Graphics/SVG/1.1/DTD/svg11.dtd"><svg t="1750577437796" class="icon" viewBox="0 0 1024 1024" version="1.1" xmlns="http://www.w3.org/2000/svg" p-id="4405" data-spm-anchor-id="a313x.search_index.0.i1.c2cc3a810Wzdez" xmlns:xlink="http://www.w3.org/1999/xlink" width="64" height="64"><path d="M620.4 681.6c-5.3 0-10.6-1.9-14.7-5.9-8.5-8.1-8.9-21.6-0.8-30.2 50-52.6 78.6-128.1 78.6-207 0-64.8-19.4-127.9-54.5-177.6-1.2-1.8-2.5-3.5-3.8-5.2-7-9.5-5.1-22.8 4.4-29.8s22.8-5.1 29.8 4.4c1.5 2 3 4 4.4 6.1 19.8 28 35.2 59.3 45.8 93.2 10.9 34.9 16.5 71.6 16.5 109 0 45.7-8.2 89.8-24.2 131.1-15.6 40.1-37.9 75.6-66.1 105.3-4.1 4.4-9.8 6.6-15.4 6.6z m-343.5-0.5c-5.7 0-11.3-2.2-15.5-6.7-28.1-29.7-50.2-65.1-65.7-105.1-16-41.2-24.1-85.2-24.1-130.7 0-48.7 9.2-95.4 27.4-138.9 4.5-10.9 17-16 27.9-11.5 10.9 4.5 16 17 11.5 27.9-16 38.3-24.1 79.5-24.1 122.4 0 40.2 7.1 79 21.2 115.3 13.5 34.9 32.7 65.6 57 91.3 8.1 8.6 7.7 22.1-0.9 30.2-4.2 3.9-9.5 5.8-14.7 5.8z" fill="#ffffff" p-id="4406"></path><path d="M279.6 472.6m-21.3 0a21.3 21.3 0 1 0 42.6 0 21.3 21.3 0 1 0-42.6 0Z" fill="#ffffff" p-id="4407"></path><path d="M279.6 500.3c-15.3 0-27.7-12.4-27.7-27.7 0-15.3 12.4-27.7 27.7-27.7 15.3 0 27.7 12.4 27.7 27.7 0.1 15.3-12.4 27.7-27.7 27.7z m0-42.7c-8.2 0-14.9 6.7-14.9 14.9s6.7 14.9 14.9 14.9 14.9-6.7 14.9-14.9c0.1-8.2-6.6-14.9-14.9-14.9z" fill="#ffffff" p-id="4408"></path><path d="M621 472.6m-21.3 0a21.3 21.3 0 1 0 42.6 0 21.3 21.3 0 1 0-42.6 0Z" fill="#ffffff" p-id="4409"></path><path d="M621 500.3c-15.3 0-27.7-12.4-27.7-27.7 0-15.3 12.4-27.7 27.7-27.7s27.7 12.4 27.7 27.7c0 15.3-12.4 27.7-27.7 27.7z m0-42.7c-8.2 0-14.9 6.7-14.9 14.9s6.7 14.9 14.9 14.9 14.9-6.7 14.9-14.9-6.7-14.9-14.9-14.9z" fill="#ffffff" p-id="4410"></path><path d="M205.6 352.4c-8.6 0-16.8-5.3-20-13.8l-5.4-14.4-8.6-21.9-53-144.5c-5.9-16-5.2-33.4 2-48.9s20-27.3 36-33.2c17.9-6.6 37.7-4.9 54.2 4.7l71.2 41.3c10.2 5.9 13.6 19 7.7 29.2-5.9 10.2-19 13.6-29.2 7.7l-71.2-41.3c-5.5-3.2-12.1-3.8-18.1-1.6-11 4.1-16.7 16.3-12.7 27.4l53 144.3 8.5 21.7 5.5 14.6c4.1 11-1.4 23.3-12.5 27.5-2.4 0.8-4.9 1.2-7.4 1.2zM698.5 382c-2.5 0-5.1-0.5-7.6-1.4-11-4.2-16.5-16.5-12.3-27.6l24.4-63.8 53-144.3c2-5.3 1.7-11.1-0.7-16.3s-6.7-9.1-12-11.1c-6-2.2-12.6-1.6-18.1 1.6l-81.4 47.3c-10.2 5.9-23.2 2.5-29.2-7.7s-2.5-23.2 7.7-29.2l81.4-47.3c16.5-9.6 36.3-11.3 54.2-4.7 16 5.9 28.8 17.7 36 33.2 7.2 15.5 7.9 32.9 2 48.9l-53.1 144.8-24.5 63.9c-3.1 8.5-11.2 13.7-19.8 13.7zM448.9 758.6c-48.8 0-95.1-9.7-130.2-27.2-39.8-19.9-61.8-48.1-61.8-79.4s21.9-59.5 61.8-79.4c35.1-17.6 81.4-27.2 130.2-27.2s95.1 9.7 130.2 27.2c39.8 19.9 61.8 48.1 61.8 79.4s-21.9 59.5-61.8 79.4c-35.1 17.5-81.4 27.2-130.2 27.2z m0-170.7c-42.3 0-81.8 8.1-111.1 22.7-23.9 12-38.2 27.4-38.2 41.3 0 30.2 63.9 64 149.3 64 42.3 0 81.8-8.1 111.1-22.7 23.9-12 38.2-27.4 38.2-41.3 0-30.2-63.9-64-149.3-64z" fill="#ffffff" p-id="4411"></path><path d="M410 695c-1.8 0-3.7-0.2-5.5-0.7-11.4-3-18.1-14.7-15.1-26.1 1.7-6.5 0.4-13.2-3.7-18.5-7.2-9.4-5.4-22.7 4-29.9 9.4-7.2 22.7-5.4 29.9 4 12.2 15.9 16.2 36.1 11 55.5-2.6 9.4-11.2 15.7-20.6 15.7zM488.8 696.1c-9.4 0-18-6.3-20.6-15.8-5.2-19.5-1.1-39.9 11.3-55.9 7.2-9.3 20.6-11 29.9-3.7 9.3 7.2 11 20.6 3.7 29.9-4.1 5.3-5.5 12.1-3.8 18.6 3 11.4-3.7 23.1-15.1 26.1-1.7 0.5-3.6 0.8-5.4 0.8zM545.1 376.2c-1.5 0-3-0.2-4.5-0.5-11.5-2.5-18.9-13.8-16.4-25.3 1.4-6.5 1.7-13.2 1-19.8-2-19-22.4-42.7-41-54.6-9.9-6.4-12.8-19.6-6.4-29.5 6.4-9.9 19.6-12.8 29.5-6.4 14 9 27.5 21.5 38.1 35.3 12.8 16.7 20.6 34.3 22.3 50.8 1.2 11.1 0.6 22.3-1.8 33.2-2.1 9.9-11 16.8-20.8 16.8zM271.5 346.8c-12.5 0-24.9-1.1-37.2-3.2l-1.5-0.3c-11.6-2.1-19.3-13.2-17.2-24.8s13.2-19.3 24.8-17.2l1.2 0.2c15.9 2.8 32.3 3.3 48.7 1.6 38.1-4 73.7-20.2 100.3-45.5 8.5-8.1 22-7.8 30.2 0.7 8.1 8.5 7.8 22-0.7 30.2-33.4 31.8-77.9 52-125.3 57-7.8 0.9-15.6 1.3-23.3 1.3z" fill="#ffffff" p-id="4412"></path><path d="M235.8 343.1c-9 0-17.4-5.8-20.3-14.9-1.9-5.8-8-26-9.6-40.8-3.4-32.6 2.3-65.6 16.7-95.5 13.6-28.5 34.8-53.8 61.2-73.3l5.1-4.4c8.9-7.7 22.4-6.7 30.1 2.2 7.7 8.9 6.7 22.4-2.2 30.1l-6.4 5.5-0.7 0.5c-43.6 31.8-66.5 80.6-61.3 130.4 0.8 8 4.5 22 7.8 32.3 3.6 11.2-2.6 23.2-13.8 26.8-2.2 0.8-4.4 1.1-6.6 1.1zM350.6 394.8c-6.6 0-13.1-3.1-17.3-8.8-6.9-9.5-4.8-22.9 4.7-29.8 26.3-19.1 51.8-55.6 48.9-83.5-1.2-11.7 7.3-22.2 19-23.4 11.7-1.2 22.2 7.3 23.4 19 2.3 22.1-4.2 46.6-18.8 70.7-12.2 20-29 38.4-47.5 51.8-3.7 2.6-8.1 4-12.4 4z" fill="#ffffff" p-id="4413"></path><path d="M376.4 397.5c-10.2 0-20.3-1.1-30.3-3.2-11.5-2.4-18.9-13.8-16.4-25.3 2.4-11.5 13.8-18.9 25.3-16.4 10.6 2.2 21.6 2.8 32.6 1.6 44.2-4.6 80.1-36.8 85.3-76.6 0.8-6 0.9-12.2 0.2-18.2-1.2-11.7 7.3-22.2 19-23.4 11.7-1.2 22.2 7.3 23.4 19 1 9.4 0.9 19-0.4 28.3-3.8 28.7-18.2 55.9-40.5 76.5-22.3 20.5-51.6 33.7-82.7 36.9-5.1 0.5-10.3 0.8-15.5 0.8zM544.8 378.8c-10.8 0-20-8.1-21.2-19.1-1.2-11.7 7.3-22.2 19-23.4 21.7-2.3 41.4-14.1 55.6-33.3 14.7-20 21.8-45.6 19.9-72-0.9-11.8 8-22 19.7-22.8 11.8-0.9 22 8 22.8 19.7 2.7 36.6-7.3 72.2-28.1 100.4-21.4 29-51.7 46.9-85.4 50.4-0.8 0-1.5 0.1-2.3 0.1zM302.7 149.9c-10.1 0-19.1-7.3-21-17.6-0.5-3-1-6.1-1.3-9.1-0.7-6.7-0.9-13.4-0.5-20.2 1.8-34.8 17.3-66.7 43.6-89.7 8.9-7.8 22.3-6.9 30.1 2 7.8 8.9 6.9 22.3-2 30.1-17.5 15.3-27.8 36.5-29 59.8-0.2 4.5-0.1 9 0.3 13.5 0.2 2 0.5 4.1 0.9 6.1 2.1 11.6-5.7 22.7-17.3 24.7-1.3 0.3-2.6 0.4-3.8 0.4z" fill="#ffffff" p-id="4414"></path><path d="M639.4 250.7h-1.1c-11.8-0.6-20.8-10.6-20.2-22.4 1.9-37-15.1-71.7-45.4-93-28.1-19.7-64.2-24.6-96.6-13.2-11.1 3.9-23.3-1.9-27.2-13.1-3.9-11.1 1.9-23.3 13.1-27.2 45.3-15.9 95.9-9 135.2 18.6 42.4 29.7 66.2 78.3 63.5 130.1-0.6 11.3-10 20.2-21.3 20.2z" fill="#ffffff" p-id="4415"></path><path d="M440.1 127c-20.7 0-41.2-5.1-59.9-15-30.2-16.1-52.3-43-62.3-75.7-3.4-11.3 2.9-23.2 14.2-26.6 11.3-3.4 23.2 2.9 26.6 14.2 6.7 21.8 21.4 39.7 41.5 50.4s43.2 12.9 65 6.3c11.3-3.4 23.2 2.9 26.6 14.2 3.4 11.3-2.9 23.2-14.2 26.6-12.3 3.7-24.9 5.6-37.5 5.6zM542.2 986.4c-1.4 0-2.8-0.1-4.2-0.4-11.6-2.3-19-13.5-16.7-25.1L555 792c2.3-11.6 13.5-19 25.1-16.7 11.6 2.3 19 13.5 16.7 25.1L563 969.2c-2 10.1-10.9 17.2-20.8 17.2zM447.9 988.1c-11.8 0-21.3-9.6-21.3-21.3V796.2c0-11.8 9.6-21.3 21.3-21.3s21.3 9.6 21.3 21.3v170.6c0 11.8-9.5 21.3-21.3 21.3zM354.1 988.8c-10 0-18.9-7-20.9-17.2L299 800.4c-2.3-11.6 5.2-22.8 16.7-25.1 11.6-2.3 22.8 5.2 25.1 16.7l34.3 171.3c2.3 11.6-5.2 22.8-16.7 25.1-1.5 0.3-2.9 0.4-4.3 0.4zM205.8 989.6c-9.5 0-18.2-6.4-20.6-16l-22.4-87.2c-8.6-32.5-3.2-65.7 15.3-93.6 20.8-31.5 56.7-53 98.3-59 11.7-1.7 22.5 6.4 24.2 18.1 1.7 11.7-6.4 22.5-18.1 24.2-29.6 4.3-54.6 19-68.8 40.3-11.6 17.6-15 38.6-9.6 59.2v0.2l22.4 87.3c2.9 11.4-3.9 23-15.4 26-1.7 0.3-3.5 0.5-5.3 0.5zM691.5 989.6c-1.7 0-3.5-0.2-5.2-0.6-11.4-2.9-18.4-14.4-15.5-25.9l20.8-83.4c1.3-5 2.1-10 2.4-14.9 1.5-21.3-5.8-41.9-20.6-58-15.2-16.6-37.3-27.5-62.1-30.8-11.7-1.5-19.9-12.2-18.4-23.9s12.2-19.9 23.9-18.4c34.8 4.5 66 20.2 88 44.2 22.8 24.8 34.1 56.8 31.7 89.9-0.5 7.4-1.8 14.9-3.6 22.2l-20.8 83.3c-2.3 9.8-11 16.3-20.6 16.3z" fill="#ffffff" p-id="4416"></path><path d="M540.2 988.8H354.1c-11.8 0-21.3-9.6-21.3-21.3s9.6-21.3 21.3-21.3h186.1c11.8 0 21.3 9.6 21.3 21.3s-9.5 21.3-21.3 21.3zM277 989.5h-68c-11.8 0-21.3-9.6-21.3-21.3s9.6-21.3 21.3-21.3h68c11.8 0 21.3 9.6 21.3 21.3s-9.5 21.3-21.3 21.3zM540.8 931.4H354.7c-11.8 0-21.3-9.6-21.3-21.3s9.6-21.3 21.3-21.3h186.1c11.8 0 21.3 9.6 21.3 21.3s-9.5 21.3-21.3 21.3zM277 931.5h-68.3c-11.8 0-21.3-9.6-21.3-21.3s9.6-21.3 21.3-21.3H277c11.8 0 21.3 9.6 21.3 21.3s-9.5 21.3-21.3 21.3z" fill="#ffffff" p-id="4417"></path><path d="M285.9 989.6c-10.4 0-19.5-7.6-21.1-18.1l-8.9-58.1c-1.8-11.6 6.2-22.5 17.9-24.3 11.7-1.8 22.5 6.2 24.3 17.9l8.9 58c1.8 11.6-6.2 22.5-17.9 24.3-1.1 0.2-2.1 0.3-3.2 0.3zM689 991h-68c-11.8 0-21.3-9.6-21.3-21.3s9.6-21.3 21.3-21.3h68c11.8 0 21.3 9.6 21.3 21.3S700.8 991 689 991zM692 932.8h-77.3c-11.8 0-21.3-9.6-21.3-21.3s9.6-21.3 21.3-21.3H692c11.8 0 21.3 9.6 21.3 21.3s-9.6 21.3-21.3 21.3z" fill="#ffffff" p-id="4418"></path><path d="M620.6 991.1c-10.4 0-19.5-7.6-21.1-18.1l-8.9-58.1c-1.8-11.6 6.2-22.5 17.9-24.3 11.7-1.8 22.5 6.2 24.3 17.9l8.9 58.1c1.8 11.6-6.2 22.5-17.9 24.3-1.1 0.1-2.2 0.2-3.2 0.2zM743.1 789.7c-1.8 0-3.7-0.2-5.5-0.7-11.4-3-18.1-14.7-15.1-26.1 20-74.7 77.4-97.9 125.2-109.8 11.4-2.9 23 4.1 25.9 15.5 2.9 11.4-4.1 23-15.5 25.9-27.6 6.9-47.3 15.6-62 27.4-15.9 12.8-26.2 29.3-32.2 52.1-2.8 9.4-11.4 15.7-20.8 15.7z" fill="#ffffff" p-id="4419"></path><path d="M895 731c-28.7 0-54.9-19.5-62.1-48.5-8.5-34.2 12.4-69 46.6-77.6 16.6-4.1 33.8-1.6 48.4 7.2 14.7 8.8 25 22.8 29.1 39.4 8.5 34.2-12.4 69-46.6 77.6-5.1 1.2-10.3 1.9-15.4 1.9z m-5.2-84.7c-11.4 2.8-18.4 14.4-15.5 25.9 2.8 11.4 14.4 18.4 25.9 15.5 5.5-1.4 10.2-4.8 13.1-9.7 2.9-4.9 3.8-10.6 2.4-16.1-1.4-5.5-4.8-10.2-9.7-13.1-4.9-3.1-10.6-3.9-16.2-2.5z" fill="#ffffff" p-id="4420"></path></svg>